<?xml version="1.0" encoding="UTF-8" standalone="no"?>
<!-- Created with Inkscape (http://www.inkscape.org/) -->

<svg
   width="12.000001mm"
   height="11.282131mm"
   viewBox="0 0 12.000001 11.282131"
   version="1.1"
   id="svg5"
   inkscape:version="1.4.2 (f4327f4, 2025-05-13)"
   sodipodi:docname="white_logo.svg"
   xmlns:inkscape="http://www.inkscape.org/namespaces/inkscape"
   xmlns:sodipodi="http://sodipodi.sourceforge.net/DTD/sodipodi-0.dtd"
   xmlns="http://www.w3.org/2000/svg"
   xmlns:svg="http://www.w3.org/2000/svg">
  <sodipodi:namedview
     id="namedview7"
     pagecolor="#ffffff"
     bordercolor="#666666"
     borderopacity="1.0"
     inkscape:pageshadow="2"
     inkscape:pageopacity="0.0"
     inkscape:pagecheckerboard="0"
     inkscape:document-units="mm"
     showgrid="false"
     inkscape:zoom="6.9842871"
     inkscape:cx="27.561868"
     inkscape:cy="29.065243"
     inkscape:window-width="1280"
     inkscape:window-height="730"
     inkscape:window-x="-6"
     inkscape:window-y="-6"
     inkscape:window-maximized="1"
     inkscape:current-layer="layer1"
     inkscape:showpageshadow="2"
     inkscape:deskcolor="#d1d1d1" />
  <defs
     id="defs2">
    <inkscape:path-effect
       effect="offset"
       id="path-effect15786"
       is_visible="true"
       lpeversion="1"
       linejoin_type="round"
       unit="mm"
       offset="10"
       miter_limit="4"
       attempt_force_join="true"
       update_on_knot_move="true" />
  </defs>
  <g
     inkscape:label="Layer 1"
     inkscape:groupmode="layer"
     id="layer1"
     transform="translate(-49.40291,-118.23098)">
    <path
       id="path1888"
       style="fill:#ffffff;stroke:#ffffff;stroke-width:0.043226;stroke-linecap:butt;stroke-linejoin:miter;stroke-miterlimit:4;stroke-dasharray:none;stroke-opacity:1"
       d="m 55.544401,118.25884 c -0.952303,0.0164 -1.819152,0.48642 -2.581147,1.01866 -1.194343,0.84697 -2.136603,2.21965 -2.075439,3.73168 0.02405,0.40921 0.07421,0.83215 0.258818,1.20333 -0.439006,-0.1694 -0.860444,-0.41575 -1.31036,-0.53741 -0.289304,-0.0504 -0.563363,0.31503 -0.31454,0.53665 0.449304,0.30687 0.960819,0.52451 1.45549,0.75209 0.403813,0.15531 0.823502,0.3467 1.262028,0.33901 0.333175,-0.035 0.336171,-0.53237 0.06456,-0.65401 -0.443982,-0.48574 -0.729004,-1.13946 -0.750004,-1.79964 0.05418,-0.83204 0.491012,-1.595 0.99791,-2.23761 0.79461,-0.94059 1.948185,-1.64952 3.196146,-1.72014 0.956055,-0.0363 2.03088,0.31593 2.500945,1.20963 0.491568,0.92903 0.173905,2.03477 -0.249326,2.92491 -0.116329,0.27765 -0.264906,0.53579 -0.531105,0.69355 -0.581029,0.49386 -1.19977,0.94597 -1.764745,1.45668 -0.250343,0.13049 0.04921,0.37777 0.208762,0.44578 0.428542,0.1101 0.693812,-0.34716 1.015254,-0.54106 0.802111,-0.70335 1.747602,-1.20926 2.719767,-1.63527 0.336643,-0.13993 0.727674,-0.36515 1.054508,-0.40691 -0.474995,0.63733 -1.229285,0.95893 -1.83879,1.44287 -0.417006,0.30996 -0.874421,0.58257 -1.267703,0.91448 -0.167522,0.16956 -0.127455,0.47248 0.12421,0.52873 0.224338,0.12095 0.407067,-0.17908 0.612125,-0.25397 0.387938,-0.23196 0.760055,-0.5081 1.157595,-0.71325 0.207829,-0.0258 0.411958,-0.0762 0.619623,-0.10289 -0.842393,0.89446 -1.742022,1.77376 -2.32593,2.86742 -0.193759,0.34989 -0.305066,0.91473 0.11643,1.1482 0.628437,0.29518 1.32809,-0.0114 1.93426,-0.22292 0.528942,-0.22687 1.090885,-0.50831 1.410319,-1.00542 0.12622,-0.29895 -0.239987,-0.52526 -0.49437,-0.38443 -0.292382,0.21575 -0.569463,0.4884 -0.913306,0.64178 -0.476774,0.23925 -0.996216,0.44511 -1.524423,0.39928 -0.06983,-0.1412 0.101817,-0.31953 0.141665,-0.46534 0.59153,-1.22762 1.73191,-2.0356 2.594051,-3.05363 0.07668,-0.33273 -0.223086,-0.61018 -0.54593,-0.58233 -0.168219,-0.0119 0.26246,-0.24738 0.329361,-0.3514 0.375021,-0.2831 0.742231,-0.83644 0.437215,-1.29169 -0.303149,-0.30832 -0.779541,-0.10313 -1.132483,-7.8e-4 -0.535104,0.17413 -1.014225,0.48022 -1.523617,0.71499 0.430282,-1.02923 0.716829,-2.22649 0.332141,-3.3134 -0.234686,-0.56818 -0.762488,-0.96318 -1.281452,-1.2618 -0.647354,-0.34224 -1.391157,-0.47177 -2.118512,-0.43447 z m 0.01138,3.30818 c -0.305862,0.12646 -0.404127,0.49885 -0.614781,0.73485 -0.577572,0.83857 -1.155145,1.67714 -1.732717,2.51571 -0.290192,0.0354 -0.37215,0.36049 -0.627061,0.46631 -0.477921,0.33782 -0.780478,0.84752 -1.011487,1.37317 -0.325223,0.71284 -0.78681,1.35618 -1.311748,1.93274 -0.233067,0.35951 0.06631,0.80695 0.443568,0.89396 0.344448,0.0567 0.65133,-0.20749 0.748067,-0.52805 0.401151,-0.89067 1.153381,-1.53489 1.79354,-2.24633 0.188116,-0.33512 0.316607,-0.70504 0.429618,-1.0638 0.173008,-0.14016 0.0793,-0.36969 0.183177,-0.51922 0.722402,-1.03086 1.445999,-2.06089 2.167655,-3.09227 0.06253,-0.28711 -0.172002,-0.55019 -0.467831,-0.46707 z" />
  </g>
</svg>
